<svg version="1.1" xmlns="http://www.w3.org/2000/svg" xmlns:xlink="http://www.w3.org/1999/xlink" width="78.04759" height="79.16376" viewBox="0,0,78.04759,79.16376"><g transform="translate(-199.3477,-130.49016)"><g data-paper-data="{&quot;isPaintingLayer&quot;:true}" fill-rule="nonzero" stroke="none" stroke-width="0" stroke-linecap="butt" stroke-linejoin="miter" stroke-miterlimit="10" stroke-dasharray="" stroke-dashoffset="0" style="mix-blend-mode: normal"><path d="M209.91632,209.65392v-59.30784h60.16737v59.30784z" fill="#60c700"/><path d="M259.24469,197.64739v-32.21732h18.1506v32.21732z" fill="#60c700"/><path d="M199.3477,202.63881v-43.10767h24.04955v43.10768z" fill="#60c700"/><path d="M217.49831,167.6989v-24.50332h47.19157v24.50332z" fill="#60c700"/><path d="M238.3715,154.53972v-17.69684h19.5119v17.69684z" fill="#60c700"/><path d="M245.17797,140.473v-9.98283h9.98283v9.98283z" fill="#60c700"/><path d="M229.2962,150.90959v-7.26024h35.39367v7.26024z" fill="#92ee3d"/><path d="M221.12843,158.16984v-7.26024h48.55286v7.26024z" fill="#92ee3d"/><path d="M227.02737,164.52255v-9.0753h38.11627v9.0753z" fill="#92ee3d"/><path d="M210.23806,209.44528v-7.26024h53.99804v7.26024z" fill="#65a32a"/><path d="M199.80147,203.09257v-9.52907h54.90557v9.52907z" fill="#65a32a"/><path d="M233.02342,177.1937v-7.1139h6.63965v7.1139z" fill="#000000"/><path d="M255.58758,176.97933v-7.11389h6.63965v7.11389z" fill="#000000"/><path d="M239.18125,190.48698v-7.11389h17.34281v7.11389z" fill="#000000"/></g></g></svg>