<svg version="1.1" xmlns="http://www.w3.org/2000/svg" xmlns:xlink="http://www.w3.org/1999/xlink" width="73.25807" height="49.73447" viewBox="0,0,73.25807,49.73447"><g transform="translate(-148.02299,-483.73555)"><g data-paper-data="{&quot;isPaintingLayer&quot;:true}" fill-rule="nonzero" stroke-linecap="butt" stroke-linejoin="miter" stroke-miterlimit="10" stroke-dasharray="" stroke-dashoffset="0" style="mix-blend-mode: normal"><g><path d="M220.53107,508.6028c0,13.31959 -16.06358,24.11723 -35.87903,24.11723c-19.81545,0 -35.87904,-10.79765 -35.87904,-24.11723c0,-13.31959 16.06359,-24.11724 35.87904,-24.11724c19.81545,0 35.87903,10.79765 35.87903,24.11724z" fill="#65c445" stroke="#325490" stroke-width="1.5"/><g fill="#000000" stroke="none" stroke-width="0"><path d="M167.72306,508.97258l16.50371,-15.68968c0,0 15.31261,15.79821 16.23572,15.61417c0.35564,-0.0709 -2.27076,2.61195 -2.25956,2.63986c0.16163,0.4029 -14.09059,-13.95247 -14.09059,-13.95247l-13.8731,13.93556z"/><path d="M172.5088,510.75522l11.52514,-11.67926l11.56498,11.66771l-0.018,11.21691c0,0 -9.47651,-0.10129 -9.49216,-0.09915c-0.08649,0.01183 -0.08109,-9.22917 -0.07686,-9.20489c0.00937,0.05375 -3.9226,0.08587 -3.90805,0.05267c0.02913,-0.0665 0.01668,9.40875 -0.03755,9.37159c-0.0711,0.09513 -9.49714,0.08145 -9.52465,0.00888c-0.08901,-0.23474 -0.03283,-11.33448 -0.03283,-11.33448z"/></g></g></g></g></svg>