<svg version="1.1" xmlns="http://www.w3.org/2000/svg" xmlns:xlink="http://www.w3.org/1999/xlink" width="76.13031" height="38.13905" viewBox="0,0,76.13031,38.13905"><g transform="translate(-208.5962,-489.83514)"><g data-paper-data="{&quot;isPaintingLayer&quot;:true}" fill-rule="nonzero" stroke-linejoin="miter" stroke-miterlimit="10" stroke-dasharray="" stroke-dashoffset="0" style="mix-blend-mode: normal"><g data-paper-data="{&quot;index&quot;:null}"><g fill="#4472c4" stroke="none" stroke-width="0" stroke-linecap="butt"><path d="M268.27188,490.06143c8.66521,0 15.68974,8.42936 15.68974,18.82751c0,10.39815 -7.02454,18.82751 -15.68974,18.82751c-8.66521,0 -15.68974,-8.42936 -15.68974,-18.82751c0,-10.39814 7.02454,-18.82751 15.68974,-18.82751z"/><path d="M209.22569,527.66802c0,0 -0.40978,-0.55368 0.99534,-1.89125c1.36634,-1.30065 4.52363,-3.34251 6.23884,-6.33723c1.66242,-2.90256 4.51582,-9.78695 4.51582,-11.97309c0,-2.63916 -1.62054,-6.64484 -4.45731,-10.20841c-3.03175,-3.80851 -7.29269,-7.09425 -7.29269,-7.09425h59.82269v37.50423z"/></g><path d="M209.3462,490.58515h61.52594c0,0 2.34758,0.17457 4.56473,1.50903c1.60922,0.96857 2.89765,2.74981 4.39058,4.5423c2.94565,3.53669 4.14906,9.40657 4.14906,11.6386c0,1.87287 -0.80439,7.58255 -2.27231,9.92682c-1.51786,2.42404 -3.23171,4.99029 -5.12673,6.4306c-2.84936,2.16565 -5.70533,2.5917 -5.70533,2.5917h-61.52594" fill="none" stroke="#325490" stroke-width="1.5" stroke-linecap="round"/></g><text transform="translate(224.90599,513.30202) scale(0.29385,0.34414)" font-size="40" xml:space="preserve" fill="#ffffff" fill-rule="nonzero" stroke="none" stroke-width="1" stroke-linecap="butt" stroke-linejoin="miter" stroke-miterlimit="10" stroke-dasharray="" stroke-dashoffset="0" font-family="Sans Serif" font-weight="normal" text-anchor="start" style="mix-blend-mode: normal"><tspan x="0" dy="0">Forecast</tspan></text></g></g></svg>