<svg version="1.1" xmlns="http://www.w3.org/2000/svg" xmlns:xlink="http://www.w3.org/1999/xlink" width="76.13031" height="38.13905" viewBox="0,0,76.13031,38.13905"><g transform="translate(-271.04059,-489.51116)"><g data-paper-data="{&quot;isPaintingLayer&quot;:true}" fill-rule="nonzero" stroke-linejoin="miter" stroke-miterlimit="10" stroke-dasharray="" stroke-dashoffset="0" style="mix-blend-mode: normal"><g data-paper-data="{&quot;index&quot;:null}"><g fill="#65c445" stroke="none" stroke-width="0" stroke-linecap="butt"><path d="M330.71629,489.73746c8.66521,0 15.68974,8.42936 15.68974,18.8275c0,10.39814 -7.02453,18.82751 -15.68974,18.82751c-8.66521,0 -15.68975,-8.42937 -15.68975,-18.82751c0,-10.39814 7.02454,-18.8275 15.68975,-18.8275z"/><path d="M271.67008,527.34403v-37.50423h59.82268v37.50423z"/></g><path d="M271.79059,490.26117h61.52594c0,0 2.34758,0.17456 4.56473,1.50903c1.60922,0.96857 2.89765,2.74982 4.39058,4.5423c2.94565,3.53669 4.14906,9.40657 4.14906,11.6386c0,1.87287 -0.80439,7.58255 -2.2723,9.92682c-1.51786,2.42404 -3.23171,4.99029 -5.12673,6.4306c-2.84936,2.16565 -5.70533,2.5917 -5.70533,2.5917h-61.52594" fill="none" stroke="#325490" stroke-width="1.5" stroke-linecap="round"/></g><text transform="translate(294.68124,512.59034) scale(0.29875,0.33305)" font-size="40" xml:space="preserve" fill="#ffffff" fill-rule="nonzero" stroke="none" stroke-width="1" stroke-linecap="butt" stroke-linejoin="miter" stroke-miterlimit="10" stroke-dasharray="" stroke-dashoffset="0" font-family="Sans Serif" font-weight="normal" text-anchor="start" style="mix-blend-mode: normal"><tspan x="0" dy="0">Goals</tspan></text></g></g></svg>