<svg version="1.1" xmlns="http://www.w3.org/2000/svg" xmlns:xlink="http://www.w3.org/1999/xlink" width="319.04044" height="49.73447" viewBox="0,0,319.04044,49.73447"><g transform="translate(-28.13044,-483.73554)"><g data-paper-data="{&quot;isPaintingLayer&quot;:true}" fill-rule="nonzero" stroke-linejoin="miter" stroke-miterlimit="10" stroke-dasharray="" stroke-dashoffset="0" style="mix-blend-mode: normal"><g><g><g fill="#4472c4" stroke="none" stroke-width="0" stroke-linecap="butt"><path d="M60.27482,508.61235c0,10.39815 -7.02454,18.82751 -15.68975,18.82751c-8.6652,0 -15.68974,-8.42936 -15.68974,-18.82751c0,-10.39814 7.02454,-18.82751 15.68974,-18.82751c8.66521,0 15.68975,8.42936 15.68975,18.82751z"/><path d="M43.80859,527.39145v-37.50423h59.82269v37.50423z"/></g><path d="M103.51076,526.9476h-61.52594c0,0 -2.85597,-0.42605 -5.70533,-2.5917c-1.89503,-1.44031 -3.60888,-4.00656 -5.12674,-6.4306c-1.46791,-2.34427 -2.2723,-8.05395 -2.2723,-9.92682c0,-2.23203 1.20341,-8.10191 4.14906,-11.6386c1.49293,-1.79249 2.78136,-3.57373 4.39059,-4.5423c2.21715,-1.33447 4.56473,-1.50903 4.56473,-1.50903h61.52594" fill="none" stroke="#325490" stroke-width="1.5" stroke-linecap="round"/></g><text transform="translate(46.6586,513.18656) scale(0.32504,0.36237)" font-size="40" xml:space="preserve" fill="#ffffff" fill-rule="nonzero" stroke="none" stroke-width="1" stroke-linecap="butt" stroke-linejoin="miter" stroke-miterlimit="10" stroke-dasharray="" stroke-dashoffset="0" font-family="Sans Serif" font-weight="normal" text-anchor="start" style="mix-blend-mode: normal"><tspan x="0" dy="0">Power</tspan></text></g><g><g><g fill="#4472c4" stroke="none" stroke-width="0" stroke-linecap="butt"><path d="M123.53129,508.68002c0,10.39814 -7.02454,18.82751 -15.68974,18.82751c-8.6652,0 -15.68974,-8.42937 -15.68974,-18.82751c0,-10.39814 7.02454,-18.8275 15.68974,-18.8275c8.66521,0 15.68974,8.42936 15.68974,18.8275z"/><path d="M107.06506,527.45912v-37.50423h59.82269v37.50423z"/></g><path d="M166.76723,527.01528h-61.52594c0,0 -2.85598,-0.42605 -5.70534,-2.5917c-1.89502,-1.44031 -3.60887,-4.00655 -5.12673,-6.43059c-1.46792,-2.34427 -2.27231,-8.05395 -2.27231,-9.92682c0,-2.23203 1.20341,-8.10191 4.14906,-11.6386c1.49293,-1.79248 2.78137,-3.57373 4.39059,-4.5423c2.21715,-1.33447 4.56473,-1.50903 4.56473,-1.50903h61.52594" fill="none" stroke="#325490" stroke-width="1.5" stroke-linecap="round"/></g><text transform="translate(108.30188,513.98038) scale(0.32504,0.36237)" font-size="40" xml:space="preserve" fill="#ffffff" fill-rule="nonzero" stroke="none" stroke-width="1" stroke-linecap="butt" stroke-linejoin="miter" stroke-miterlimit="10" stroke-dasharray="" stroke-dashoffset="0" font-family="Sans Serif" font-weight="normal" text-anchor="start" style="mix-blend-mode: normal"><tspan x="0" dy="0">Billing</tspan></text></g><g><g data-paper-data="{&quot;index&quot;:null}"><g fill="#4472c4" stroke="none" stroke-width="0" stroke-linecap="butt"><path d="M268.27187,490.06141c8.66521,0 15.68974,8.42936 15.68974,18.82751c0,10.39815 -7.02454,18.82751 -15.68974,18.82751c-8.66521,0 -15.68974,-8.42936 -15.68974,-18.82751c0,-10.39814 7.02454,-18.82751 15.68974,-18.82751z"/><path d="M209.22568,527.66802v-37.50423h59.82269v37.50423z"/></g><path d="M209.34619,490.58513h61.52594c0,0 2.34758,0.17457 4.56473,1.50903c1.60922,0.96857 2.89765,2.74981 4.39058,4.5423c2.94565,3.53669 4.14906,9.40657 4.14906,11.6386c0,1.87287 -0.80439,7.58255 -2.27231,9.92682c-1.51786,2.42404 -3.23171,4.99029 -5.12673,6.4306c-2.84936,2.16565 -5.70533,2.5917 -5.70533,2.5917h-61.52594" fill="none" stroke="#325490" stroke-width="1.5" stroke-linecap="round"/></g><text transform="translate(224.90598,513.30202) scale(0.29385,0.34414)" font-size="40" xml:space="preserve" fill="#ffffff" fill-rule="nonzero" stroke="none" stroke-width="1" stroke-linecap="butt" stroke-linejoin="miter" stroke-miterlimit="10" stroke-dasharray="" stroke-dashoffset="0" font-family="Sans Serif" font-weight="normal" text-anchor="start" style="mix-blend-mode: normal"><tspan x="0" dy="0">Forecast</tspan></text></g><g><g data-paper-data="{&quot;index&quot;:null}"><g fill="#4472c4" stroke="none" stroke-width="0" stroke-linecap="butt"><path d="M330.71628,489.73743c8.66521,0 15.68974,8.42936 15.68974,18.8275c0,10.39814 -7.02453,18.82751 -15.68974,18.82751c-8.66521,0 -15.68975,-8.42937 -15.68975,-18.82751c0,-10.39814 7.02454,-18.8275 15.68975,-18.8275z"/><path d="M271.67008,527.34403v-37.50423h59.82268v37.50423z"/></g><path d="M271.79058,490.26114h61.52594c0,0 2.34758,0.17456 4.56473,1.50903c1.60922,0.96857 2.89765,2.74982 4.39058,4.5423c2.94565,3.53669 4.14906,9.40657 4.14906,11.6386c0,1.87287 -0.80439,7.58255 -2.2723,9.92682c-1.51786,2.42404 -3.23171,4.99029 -5.12673,6.4306c-2.84936,2.16565 -5.70533,2.5917 -5.70533,2.5917h-61.52594" fill="none" stroke="#325490" stroke-width="1.5" stroke-linecap="round"/></g><text transform="translate(294.68122,512.59034) scale(0.29875,0.33305)" font-size="40" xml:space="preserve" fill="#ffffff" fill-rule="nonzero" stroke="none" stroke-width="1" stroke-linecap="butt" stroke-linejoin="miter" stroke-miterlimit="10" stroke-dasharray="" stroke-dashoffset="0" font-family="Sans Serif" font-weight="normal" text-anchor="start" style="mix-blend-mode: normal"><tspan x="0" dy="0">Goals</tspan></text></g><g stroke-linecap="butt"><path d="M220.53106,508.60279c0,13.31959 -16.06358,24.11723 -35.87903,24.11723c-19.81545,0 -35.87904,-10.79765 -35.87904,-24.11723c0,-13.31959 16.06359,-24.11724 35.87904,-24.11724c19.81545,0 35.87903,10.79765 35.87903,24.11724z" fill="#65c445" stroke="#325490" stroke-width="1.5"/><g fill="#000000" stroke="none" stroke-width="0"><path d="M167.72305,508.97257l16.50371,-15.68968c0,0 15.31261,15.79821 16.23572,15.61417c0.35564,-0.0709 -2.27076,2.61195 -2.25956,2.63986c0.16163,0.4029 -14.09059,-13.95247 -14.09059,-13.95247l-13.8731,13.93556z"/><path d="M172.50879,510.75521l11.52514,-11.67926l11.56498,11.66771l-0.018,11.21691c0,0 -9.47651,-0.10129 -9.49216,-0.09915c-0.08649,0.01183 -0.08109,-9.22917 -0.07686,-9.20489c0.00937,0.05375 -3.9226,0.08587 -3.90805,0.05267c0.02913,-0.0665 0.01668,9.40875 -0.03755,9.37159c-0.0711,0.09513 -9.49714,0.08145 -9.52465,0.00888c-0.08901,-0.23474 -0.03283,-11.33448 -0.03283,-11.33448z"/></g></g></g></g></svg>