<svg version="1.1" xmlns="http://www.w3.org/2000/svg" xmlns:xlink="http://www.w3.org/1999/xlink" width="76.13032" height="38.13905" viewBox="0,0,76.13032,38.13905"><g transform="translate(-28.13046,-489.55855)"><g data-paper-data="{&quot;isPaintingLayer&quot;:true}" fill-rule="nonzero" stroke-linejoin="miter" stroke-miterlimit="10" stroke-dasharray="" stroke-dashoffset="0" style="mix-blend-mode: normal"><g><g fill="#65c445" stroke="none" stroke-width="0" stroke-linecap="butt"><path d="M60.27483,508.61236c0,10.39815 -7.02454,18.82751 -15.68975,18.82751c-8.6652,0 -15.68974,-8.42936 -15.68974,-18.82751c0,-10.39814 7.02454,-18.82751 15.68974,-18.82751c8.66521,0 15.68975,8.42936 15.68975,18.82751z"/><path d="M43.8086,527.39145v-37.50423h59.82269c0,0 -5.31125,2.31992 -8.8598,7.56117c-1.91548,2.82918 -3.1402,8.54687 -3.1402,10.59327c0,3.23719 0.6582,8.85153 3.61125,12.8295c3.04553,4.10255 8.38875,6.52029 8.38875,6.52029z"/></g><path d="M103.51077,526.9476h-61.52594c0,0 -2.85597,-0.42605 -5.70533,-2.5917c-1.89503,-1.44031 -3.60888,-4.00656 -5.12674,-6.4306c-1.46791,-2.34427 -2.2723,-8.05395 -2.2723,-9.92682c0,-2.23203 1.20341,-8.10191 4.14906,-11.6386c1.49293,-1.79249 2.78136,-3.57373 4.39059,-4.5423c2.21715,-1.33447 4.56473,-1.50903 4.56473,-1.50903h61.52594" fill="none" stroke="#325490" stroke-width="1.5" stroke-linecap="round"/></g><text transform="translate(46.65861,513.18657) scale(0.32504,0.36237)" font-size="40" xml:space="preserve" fill="#ffffff" fill-rule="nonzero" stroke="none" stroke-width="1" stroke-linecap="butt" stroke-linejoin="miter" stroke-miterlimit="10" stroke-dasharray="" stroke-dashoffset="0" font-family="Sans Serif" font-weight="normal" text-anchor="start" style="mix-blend-mode: normal"><tspan x="0" dy="0">Power</tspan></text></g></g></svg>