<svg version="1.1" xmlns="http://www.w3.org/2000/svg" xmlns:xlink="http://www.w3.org/1999/xlink" width="76.13032" height="38.13904" viewBox="0,0,76.13032,38.13904"><g transform="translate(-91.38691,-489.62624)"><g data-paper-data="{&quot;isPaintingLayer&quot;:true}" fill-rule="nonzero" stroke-linejoin="miter" stroke-miterlimit="10" stroke-dasharray="" stroke-dashoffset="0" style="mix-blend-mode: normal"><g><g fill="#65c445" stroke="none" stroke-width="0" stroke-linecap="butt"><path d="M123.5313,508.68003c0,10.39814 -7.02454,18.82751 -15.68974,18.82751c-8.6652,0 -15.68974,-8.42937 -15.68974,-18.82751c0,-10.39814 7.02454,-18.8275 15.68974,-18.8275c8.66521,0 15.68974,8.42936 15.68974,18.8275z"/><path d="M107.06507,527.45913v-37.50423h59.82269v37.50423z"/></g><path d="M166.76724,527.01528h-61.52594c0,0 -2.85598,-0.42605 -5.70534,-2.5917c-1.89502,-1.44031 -3.60887,-4.00655 -5.12673,-6.43059c-1.46792,-2.34427 -2.27231,-8.05395 -2.27231,-9.92682c0,-2.23203 1.20341,-8.10191 4.14906,-11.6386c1.49293,-1.79248 2.78137,-3.57373 4.39059,-4.5423c2.21715,-1.33447 4.56473,-1.50903 4.56473,-1.50903h61.52594" fill="none" stroke="#325490" stroke-width="1.5" stroke-linecap="round"/></g><text transform="translate(108.30189,513.98038) scale(0.32504,0.36237)" font-size="40" xml:space="preserve" fill="#ffffff" fill-rule="nonzero" stroke="none" stroke-width="1" stroke-linecap="butt" stroke-linejoin="miter" stroke-miterlimit="10" stroke-dasharray="" stroke-dashoffset="0" font-family="Sans Serif" font-weight="normal" text-anchor="start" style="mix-blend-mode: normal"><tspan x="0" dy="0">Billing</tspan></text></g></g></svg>