<svg version="1.1" xmlns="http://www.w3.org/2000/svg" xmlns:xlink="http://www.w3.org/1999/xlink" width="217.40091" height="116.23337" viewBox="0,0,217.40091,116.23337"><g transform="translate(-135.6282,-117.96197)"><g data-paper-data="{&quot;isPaintingLayer&quot;:true}" fill="#9966ff" fill-rule="nonzero" stroke="none" stroke-width="0.5" stroke-linecap="butt" stroke-linejoin="miter" stroke-miterlimit="10" stroke-dasharray="" stroke-dashoffset="0" style="mix-blend-mode: normal"><path d="M140,144.5c0,-2.5 2.5,-2.5 2.5,-2.5h2c0.13389,0.00098 0.26763,0.00393 0.40124,0.00869c0.25346,-1.73932 0.63564,-3.49672 1.22705,-5.29926c0,0 0.79057,-2.37171 3.16228,-1.58114c2.37171,0.79057 1.58114,3.16228 1.58114,3.16228c-0.50466,1.48698 -0.84365,2.95055 -1.07408,4.40433c0.69966,0.12724 1.39996,0.24788 2.10283,0.33738c4.34877,0.55377 9.20289,-0.03228 13.59954,-0.03228c2.5332,0 5.09889,0.43705 7.59954,0.03228c3.29288,-0.533 6.74866,-3.09024 9.72737,-4.27186c1.41727,-0.56221 3.01305,-0.67025 4.35876,-1.38705c0.83212,-0.44324 1.18312,-1.52926 2,-2c1.14304,-0.6587 2.45781,-0.9798 3.73619,-1.30561c4.22714,-1.07732 8.76608,-1.11773 13.0451,-2.01028c7.45671,-1.55539 14.94794,-3.307 22.38907,-4.99533c6.48478,-1.47046 13.08792,-2.48317 19.55171,-3.99099c7.68765,-1.79332 14.43729,-4.63369 22.454,-5.06734c4.68176,-0.25325 8.67844,0.71368 13.29359,1.00101c1.7116,0.10656 8.56653,-0.13312 10.12755,0.01123c4.38594,0.40557 8.92824,2.10948 13.22969,3.03706c5.81597,1.25417 11.68241,2.16026 17.47943,3.52097c4.78195,1.12373 10.19263,1.98342 14.81933,3.56124c3.84663,1.31179 5.41073,2.96841 8.63259,5.32383c1.17044,0.85568 2.66828,1.36696 3.54284,2.52336c1.85988,2.45928 1.52925,5.24259 1.50425,8.03374c-0.04844,5.40856 -1.20477,9.97202 -2.25083,15.23426c-1.56363,7.86589 -2.25922,15.90577 -3.78871,23.73964c-1.55827,7.98132 -4.77367,15.92189 -7.19739,23.67732c-1.00909,3.22115 -1.67432,6.55813 -2.90927,9.69962c-0.57132,1.45333 -0.91288,3.21686 -2.15946,4.1574c-1.59483,1.20329 -3.81881,1.17603 -5.72061,1.78805c-7.58819,2.44195 -15.33015,4.24076 -23.3265,4.68364c-4.7745,0.26444 -10.01883,-0.74782 -14.7378,-0.02846c-5.67598,0.86525 -11.24561,4.07098 -16.93033,5.27042c-6.98906,1.47465 -14.69408,0.88779 -21.79878,0.57024c-12.5877,-2.08719 -25.09971,-1.70819 -37.74201,-2.94672c-13.30284,-1.30324 -26.88144,-4.15759 -39.68264,-7.97785c-7.27392,-2.17075 -14.39052,-5.52982 -21.47742,-8.25555c-1.75891,-0.71129 -3.75529,-1.00033 -5.27674,-2.13387c-1.42684,-1.06306 -2.0023,-2.96828 -3.26031,-4.22662c-1.09505,-1.09534 -2.51408,-1.81121 -3.73223,-2.76777c-1.60543,-1.26066 -3.70442,-2.12061 -4.73607,-3.88197c-1.67925,-2.86701 0.41619,-5.68966 1.15515,-8.20305c0.59206,-2.01375 1.61505,-7.46603 1.97575,-9.48992c1.57231,-8.82221 3.79507,-18.01242 4.61819,-26.91951c0.32184,-3.48262 0.29174,-6.75809 0.44256,-10.00555l-1.95559,0c0,0 -2.5,0 -2.5,-2.5z"/></g></g></svg>